<?xml version="1.0" encoding="UTF-8"?>
<svg xmlns="http://www.w3.org/2000/svg" viewBox="0 0 512 512" width="512" height="512"><g id="outline"><path d="M488,240h-8V216a8,8,0,0,0-8-8H440V176h8a8,8,0,0,0,0-16H382.326a107.821,107.821,0,0,0-103.91-80H264V64h40a8,8,0,0,0,8-8.015l-.058-32a8,8,0,0,0-8-7.985H256a8,8,0,0,0-8,8V80H233.584a107.821,107.821,0,0,0-103.91,80H64a8,8,0,0,0,0,16h8v32H40a8,8,0,0,0-8,8v24H24a8,8,0,0,0-8,8v32a8,8,0,0,0,8,8h8V448H24a8,8,0,0,0-8,8v32a8,8,0,0,0,8,8H488a8,8,0,0,0,8-8V456a8,8,0,0,0-8-8h-8V288h8a8,8,0,0,0,8-8V248A8,8,0,0,0,488,240ZM264,40V32h31.957l.028,16H264ZM365.7,160H334.33a102.975,102.975,0,0,0-44.682-60.4L284.22,96.2A91.835,91.835,0,0,1,365.7,160ZM264,102.434l17.168,10.73A86.9,86.9,0,0,1,317.637,160H264Zm-16,0V160H194.363a86.9,86.9,0,0,1,36.469-46.836ZM227.779,96.2,222.352,99.6A102.975,102.975,0,0,0,177.67,160H146.3A91.835,91.835,0,0,1,227.779,96.2ZM88,176H424v32H392v-8a8,8,0,0,0-16,0v8H360v-8a8,8,0,0,0-16,0v8H328v-8a8,8,0,0,0-16,0v8H296v-8a8,8,0,0,0-16,0v8H264v-8a8,8,0,0,0-16,0v8H232v-8a8,8,0,0,0-16,0v8H200v-8a8,8,0,0,0-16,0v8H168v-8a8,8,0,0,0-16,0v8H136v-8a8,8,0,0,0-16,0v8H88ZM48,224H464v16H48ZM480,480H32V464H480ZM416,304a32.036,32.036,0,0,0-32,32v16H368V336a32,32,0,0,0-64,0v16H288V336a32,32,0,0,0-64,0v16H208V336a32,32,0,0,0-64,0v16H128V336a32,32,0,0,0-64,0V448H48V288H464V448H448V336A32.036,32.036,0,0,0,416,304Zm-16,48V336a16,16,0,0,1,32,0v16Zm32,16v80H400V368Zm-48,0v80H368V368Zm-64,48V368h32v48Zm32,16v16H320V432Zm-32-80V336a16,16,0,0,1,32,0v16Zm-16,16v80H288V368Zm-64,32V368h32v32Zm32,16v32H240V416Zm-32-64V336a16,16,0,0,1,32,0v16Zm-16,16v80H208V368Zm-64,48V368h32v48Zm32,16v16H160V432Zm-32-80V336a16,16,0,0,1,32,0v16Zm-16,16v80H128V368ZM80,352V336a16,16,0,0,1,32,0v16Zm32,16v80H80V368Zm368-96H32V256H480Z"/></g></svg>
