<svg id="Layer_1" enable-background="new 0 0 511.993 511.993" height="512" viewBox="0 0 511.993 511.993" width="512" xmlns="http://www.w3.org/2000/svg"><g><path d="m84.713 215.618c5.61 6.879 8.014 15.85 6.595 24.612-3.918 24.173 9.737 47.926 32.705 56.648 8.299 3.152 14.866 9.719 18.018 18.017 2.348 6.182 5.87 11.831 10.308 16.651l-55.786 130.936c-4.485 10.533 5.322 21.539 16.306 18.285l37.939-11.255 18.165 35.157c5.259 10.183 19.995 9.624 24.481-.908l58.825-138.074c2.673.194 4.786.194 7.456 0l58.824 138.073c4.495 10.548 19.226 11.077 24.482.909l18.165-35.158 37.938 11.255c10.999 3.265 20.787-7.771 16.305-18.285l-24.305-57.051c-1.625-3.811-6.028-5.585-9.84-3.96-3.811 1.624-5.584 6.029-3.961 9.839l23.088 54.192-37.523-11.133-30.437-71.441-14.833-34.816c10.358.773 21.173-1.695 29.878-6.815l16.08 37.745c1.625 3.811 6.029 5.584 9.84 3.96s5.584-6.029 3.961-9.839l-17.731-41.618c4.438-4.821 7.96-10.469 10.308-16.651 3.151-8.298 9.719-14.865 18.018-18.017 22.941-8.713 36.626-32.441 32.705-56.648-1.42-8.762.983-17.732 6.595-24.612 15.48-18.978 15.53-46.372 0-65.411-5.611-6.879-8.015-15.85-6.595-24.612 3.916-24.175-9.736-47.924-32.705-56.647-8.299-3.152-14.866-9.719-18.018-18.018-8.694-22.89-32.385-36.634-56.649-32.706-8.756 1.419-17.73-.983-24.61-6.595-18.977-15.48-46.373-15.53-65.413 0-6.878 5.611-15.847 8.013-24.611 6.595-24.172-3.921-47.923 9.737-56.647 32.706-3.151 8.298-9.719 14.866-18.018 18.018-22.893 8.694-36.636 32.396-32.705 56.647 1.42 8.763-.984 17.734-6.595 24.612-15.483 18.976-15.533 46.376-.003 65.413zm64.383 238.752-37.525 11.133 52.917-124.205c8.142 4.834 18.867 7.624 29.878 6.814-1.783 4.185-43.224 101.456-45.27 106.258zm31.767 40.653-17.967-34.774 47.812-112.224c11.894 2.772 12.879 9.031 26.671 14.343zm168.234-34.774-17.967 34.774-56.516-132.654c13.765-5.314 14.692-11.539 26.67-14.344zm-252.761-300.561c8.319-10.198 11.884-23.5 9.778-36.493-2.791-17.216 6.893-34.023 23.225-40.226 12.305-4.673 22.042-14.41 26.715-26.715 6.178-16.27 22.935-26.023 40.226-23.224 12.988 2.104 26.293-1.458 36.491-9.778 13.516-11.025 32.911-11.043 46.45 0 10.198 8.32 23.497 11.886 36.491 9.778 17.221-2.788 34.024 6.89 40.227 23.224 4.674 12.305 14.41 22.042 26.715 26.715 16.307 6.193 26.018 22.981 23.225 40.226-2.106 12.992 1.458 26.293 9.778 36.493 11.025 13.516 11.042 32.91 0 46.449-8.32 10.2-11.884 23.5-9.778 36.492 2.789 17.22-6.893 34.023-23.225 40.227-12.305 4.672-22.042 14.41-26.715 26.714-5.963 15.703-22.252 26.078-40.334 23.209-12.958-2.069-26.252 1.517-36.429 9.828-13.466 10.947-32.892 10.989-46.402-.035h-.001c-13.516-11.024-29.298-10.439-26.233-10.269-3.362-.187-6.619-.099-10.26.491-17.545 2.843-34.145-7.213-40.225-23.224-4.673-12.304-14.41-22.041-26.715-26.714-16.306-6.193-26.02-22.982-23.225-40.227 2.104-12.992-1.459-26.292-9.778-36.492-11.026-13.515-11.043-32.913-.001-46.449z"/><path d="m255.997 91.024h-.001c-50.667 0-91.887 41.221-91.887 91.888s41.22 91.888 91.887 91.888c50.668 0 91.889-41.221 91.889-91.888s-41.221-91.887-91.888-91.888zm-14.662 16.419-16.239 32.903-36.308 5.276c10.861-19.496 29.951-33.797 52.547-38.179zm-41.54 127.862c-12.819-13.742-20.686-32.161-20.686-52.393 0-3.192.219-6.331.598-9.422l26.293 25.63zm56.201 24.495c-11.627 0-22.651-2.608-32.541-7.248l32.542-17.108 32.541 17.108c-9.89 4.64-20.915 7.248-32.542 7.248zm76.888-76.887c0 20.231-7.867 38.65-20.686 52.392l-6.206-36.185 26.293-25.63c.381 3.091.599 6.231.599 9.423zm-39.036 7.098c-2.489 2.424-3.624 5.917-3.035 9.338l7.06 41.164-36.965-19.433c-3.071-1.617-6.745-1.619-9.82-.002l-36.967 19.435 7.061-41.168c.585-3.422-.55-6.912-3.034-9.332l-29.908-29.153 41.332-6.006c3.438-.5 6.406-2.659 7.94-5.771l18.484-37.453 18.484 37.455c1.537 3.112 4.505 5.268 7.941 5.768l41.331 6.006zm-6.952-49.664-16.239-32.903c22.596 4.382 41.687 18.682 52.548 38.179z"/><path d="m255.997 307.787c61.825 0 114.384-45.349 123.492-106.266.612-4.097-2.213-7.914-6.309-8.526-4.106-.609-7.914 2.211-8.527 6.309-7.967 53.294-54.68 93.484-108.656 93.484-60.585 0-109.875-49.29-109.875-109.875s49.29-109.875 109.875-109.875c53.977 0 100.689 40.189 108.656 93.483.613 4.097 4.438 6.925 8.527 6.309 4.096-.612 6.921-4.43 6.309-8.526-9.114-60.952-61.702-106.266-123.492-106.266-68.856 0-124.875 56.019-124.875 124.875s56.018 124.874 124.875 124.874z"/></g></svg>