<svg id="Capa_1" enable-background="new 0 0 512 512" height="512" viewBox="0 0 512 512" width="512" xmlns="http://www.w3.org/2000/svg"><g><path d="m196.001 109.717c.152-30.199 24.766-54.717 54.999-54.717h85v-20c0-19.33-15.67-35-35-35h-110c-19.33 0-35 15.67-35 35v30c0 23.162 17.502 42.229 40.001 44.717z"/><path d="m331 85h-80c-13.807 0-25 11.193-25 25 0 13.807 11.193 25 25 25 0 0 48.848.01 50 .01 5.559 0 10.906 3.096 13.502 8.457 3.607 7.449.243 16.43-7.16 20.132l-4.189 2.094c-16.85 8.425-26.819 25.745-27.156 44.581-.152 8.464-7.315 15.218-15.928 14.698-7.821-.472-14.119-7.665-14.068-15.501.105-16.273 5.061-31.64 13.834-44.471h-8.835c-19.264 0-36.236-9.964-46.062-25h-3.938c-16.871 0-32.456-5.603-45-15.041v43.583c0 25.388 9.468 49.864 26.553 68.643l10.942 12.026v20.789h125.005v-20.363l44.213-55.267c2.128-2.659 3.287-5.964 3.287-9.37v-65c0-19.33-15.67-35-35-35z"/><path d="m316 300h-120c-8.284 0-15 6.716-15 15v182c0 8.284 6.716 15 15 15h120c8.284 0 15-6.716 15-15v-182c0-8.284-6.716-15-15-15z"/><path d="m396 120h22.523c5.188 8.964 14.874 15 25.977 15s20.789-6.036 25.977-15h26.523c8.284 0 15-6.716 15-15s-6.716-15-15-15h-26.523c-5.188-8.964-14.874-15-25.977-15s-20.789 6.036-25.977 15h-29.889c4.695 8.982 7.366 19.182 7.366 30z"/><path d="m497 287.5h-105c-8.271 0-15 6.729-15 15v12.5c0 37.22 30.28 67.5 67.5 67.5s67.5-30.28 67.5-67.5v-12.5c0-8.271-6.729-15-15-15z"/><path d="m444.5 165c-8.367 0-16.337-1.727-23.58-4.835l-30.417 97.335h31.431l22.566-72.211 22.566 72.211h31.431l-30.417-97.335c-7.243 3.108-15.213 4.835-23.58 4.835z"/><path d="m15 120h26.523c5.188 8.964 14.874 15 25.977 15s20.789-6.036 25.977-15h32.523v-30h-32.523c-5.188-8.964-14.875-15-25.977-15s-20.789 6.036-25.977 15h-26.523c-8.284 0-15 6.716-15 15s6.716 15 15 15z"/><path d="m120 287.5h-105c-8.271 0-15 6.729-15 15v12.5c0 37.22 30.28 67.5 67.5 67.5s67.5-30.28 67.5-67.5v-12.5c0-8.271-6.729-15-15-15z"/><path d="m43.92 160.165-30.417 97.335h31.431l22.566-72.211 22.566 72.211h31.431l-30.417-97.335c-7.243 3.108-15.213 4.835-23.58 4.835s-16.337-1.727-23.58-4.835z"/></g></svg>