<svg height="512pt" viewBox="0 0 512 512" width="512pt" xmlns="http://www.w3.org/2000/svg"><path d="m420 300c-5.519531 0-10 4.480469-10 10s4.480469 10 10 10 10-4.480469 10-10-4.480469-10-10-10zm0 0"/><path d="m256 240c-5.519531 0-10 4.480469-10 10s4.480469 10 10 10 10-4.480469 10-10-4.480469-10-10-10zm0 0"/><path d="m92 300c-5.519531 0-10 4.480469-10 10s4.480469 10 10 10 10-4.480469 10-10-4.480469-10-10-10zm0 0"/><path d="m142 110c0-27.570312-22.429688-50-50-50s-50 22.429688-50 50 22.429688 50 50 50 50-22.429688 50-50zm-50 30c-16.542969 0-30-13.457031-30-30s13.457031-30 30-30 30 13.457031 30 30-13.457031 30-30 30zm0 0"/><path d="m440 160h-40c-15.609375 0-31.078125 5.195312-43.46875 14.054688-7.566406-40.730469-44.882812-74.054688-90.53125-74.054688h-20c-45.636719 0-82.960938 33.304688-90.53125 74.054688-12.390625-8.859376-27.859375-14.054688-43.46875-14.054688h-40c-37.789062 0-72 30.515625-72 70v80c0 16.542969 13.457031 30 30 30h12v142c0 16.542969 13.457031 30 30 30h40c16.542969 0 30-13.457031 30-30v-142h12c16.542969 0 30-13.457031 30-30v-10h12v182c0 16.542969 13.457031 30 30 30h60c16.542969 0 30-13.457031 30-30v-182h12v10c0 16.542969 13.457031 30 30 30h12v142c0 16.542969 13.457031 30 30 30h40c16.542969 0 30-13.457031 30-30v-142h12c16.542969 0 30-13.457031 30-30v-80c0-39.480469-34.207031-70-72-70zm-286 160h-12v-90c0-5.523438-4.476562-10-10-10s-10 4.476562-10 10v252c0 5.515625-4.484375 10-10 10h-10v-142c0-5.523438-4.476562-10-10-10s-10 4.476562-10 10v142h-10c-5.515625 0-10-4.484375-10-10v-252c0-5.523438-4.476562-10-10-10s-10 4.476562-10 10v90h-12c-5.515625 0-10-4.484375-10-10v-80c0-27.101562 23.8125-50 52-50h40c16.472656 0 32.625 7.78125 42 20.027344v69.972656c0 8.601562 3.730469 16.726562 10 22.34375v17.65625c0 5.515625-4.484375 10-10 10zm162-40v-90c0-5.523438-4.476562-10-10-10s-10 4.476562-10 10v292c0 5.515625-4.484375 10-10 10h-20v-202c0-5.523438-4.476562-10-10-10s-10 4.476562-10 10v202h-20c-5.515625 0-10-4.484375-10-10v-292c0-5.523438-4.476562-10-10-10s-10 4.476562-10 10v90h-12c-5.4375 0-10-4.433594-10-10 0-22.898438 0-55.597656 0-80 0-37.945312 32.972656-70 72-70h20c39.027344 0 72 32.054688 72 70v80c0 5.515625-4.519531 10-10 10zm176 30c0 5.515625-4.484375 10-10 10h-12v-90c0-5.523438-4.476562-10-10-10s-10 4.476562-10 10v252c0 5.515625-4.484375 10-10 10h-10v-142c0-5.523438-4.476562-10-10-10s-10 4.476562-10 10v142h-10c-5.515625 0-10-4.484375-10-10v-252c0-5.523438-4.476562-10-10-10s-10 4.476562-10 10v90h-12c-5.515625 0-10-4.484375-10-10v-17.664062c6.273438-5.625 10-13.742188 10-22.335938v-69.972656c9.375-12.246094 25.527344-20.027344 42-20.027344h40c28.1875 0 52 22.898438 52 50zm0 0"/><path d="m470 110c0-27.570312-22.429688-50-50-50s-50 22.429688-50 50 22.429688 50 50 50 50-22.429688 50-50zm-50 30c-16.542969 0-30-13.457031-30-30s13.457031-30 30-30 30 13.457031 30 30-13.457031 30-30 30zm0 0"/><path d="m306 50c0-27.570312-22.429688-50-50-50s-50 22.429688-50 50 22.429688 50 50 50 50-22.429688 50-50zm-50 30c-16.542969 0-30-13.457031-30-30s13.457031-30 30-30 30 13.457031 30 30-13.457031 30-30 30zm0 0"/></svg>